<svg width="500" height="500" viewBox="0 0 500 500" fill="none" xmlns="http://www.w3.org/2000/svg">
<path d="M182.423 320H165.853C161.169 320 156.677 318.139 153.365 314.827C150.053 311.515 148.192 307.023 148.192 302.339V257.512C148.192 252.828 150.053 248.336 153.365 245.024C156.677 241.712 161.169 239.851 165.853 239.851V239.851C170.537 239.851 175.029 241.712 178.341 245.024C181.653 248.336 183.513 252.828 183.513 257.512V284.679C192.598 284.377 201.193 280.484 207.412 273.855C213.632 267.226 216.968 258.401 216.691 249.315C216.082 230.619 199.986 216.131 181.284 216.131H166.669C159.861 216.131 153.332 213.427 148.518 208.613C143.704 203.799 141 197.27 141 190.462V180.834H180.73C218.414 180.834 250.557 210.066 251.982 247.744C252.33 257.099 250.788 266.428 247.45 275.174C244.112 283.921 239.045 291.904 232.553 298.649C226.06 305.393 218.275 310.76 209.662 314.428C201.049 318.097 191.785 319.992 182.423 320Z" fill="#FF4A33"/>
<path d="M295.074 276.232C295.074 266.485 287.172 258.584 277.425 258.584C267.678 258.584 259.777 266.485 259.777 276.232V301.542C259.777 311.289 267.678 319.19 277.425 319.19C287.172 319.19 295.074 311.289 295.074 301.542V276.232Z" fill="#FF4A33"/>
<path d="M277.425 214.992C287.088 214.992 294.921 207.159 294.921 197.496C294.921 187.833 287.088 180 277.425 180C267.762 180 259.929 187.833 259.929 197.496C259.929 207.159 267.762 214.992 277.425 214.992Z" fill="#FF4A33"/>
<path d="M341.132 318.946C338.114 318.945 335.147 318.171 332.514 316.698C329.881 315.225 327.669 313.101 326.09 310.53L284.776 243.061C282.343 239.073 281.588 234.283 282.678 229.741C283.768 225.198 286.614 221.272 290.592 218.823V218.823C294.586 216.381 299.387 215.625 303.939 216.721C308.491 217.817 312.421 220.676 314.866 224.669L323.483 238.798V205.669C323.483 198.861 326.188 192.332 331.001 187.518C335.815 182.704 342.344 180 349.152 180H358.78V300.756C358.78 306.846 355.954 312.784 350.827 316.072C347.939 317.942 344.572 318.94 341.132 318.946V318.946Z" fill="#FF4A33"/>
</svg>
